<?xml version="1.0" standalone="no"?>
<!DOCTYPE svg PUBLIC "-//W3C//DTD SVG 20010904//EN"
 "http://www.w3.org/TR/2001/REC-SVG-20010904/DTD/svg10.dtd">
<svg version="1.0" xmlns="http://www.w3.org/2000/svg"
 width="240.000000pt" height="240.000000pt" viewBox="0 0 240.000000 240.000000"
 preserveAspectRatio="xMidYMid meet">
<metadata>
Created by potrace 1.14, written by Peter Selinger 2001-2017
</metadata>
<g transform="translate(0.000000,240.000000) scale(0.100000,-0.100000)"
fill="#000000" stroke="none">
<path d="M237 2190 c-129 -40 -214 -145 -220 -271 l-2 -54 250 -1 c138 -1 253
-2 258 -3 4 -1 6 -294 5 -651 l-3 -650 30 5 c46 9 166 71 202 104 17 16 43 47
57 68 51 77 53 91 52 625 -1 324 2 499 9 501 20 6 861 0 880 -6 53 -18 78
-133 43 -205 -36 -75 -32 -74 -359 -75 l-290 0 3 -381 3 -381 28 -57 c48 -98
140 -165 252 -185 61 -11 492 -10 555 1 25 5 50 12 55 16 6 5 14 8 18 8 25 1
104 51 145 92 92 92 139 215 146 380 4 108 -12 201 -49 277 -30 60 -103 136
-157 164 l-37 19 29 46 c89 142 67 370 -49 491 -52 54 -159 109 -251 128 -19
4 -375 9 -791 10 -689 2 -762 0 -812 -15z m1693 -979 c106 -56 106 -219 0
-264 -33 -14 -419 -16 -428 -2 -9 14 -9 269 0 275 4 3 96 5 205 5 143 -1 205
-5 223 -14z"/>
<path d="M274 403 c4 -5 16 -9 27 -9 10 -1 23 -2 28 -3 5 0 9 -36 9 -78 0 -99
0 -103 11 -103 5 0 9 33 9 73 1 126 -2 117 32 113 17 -2 30 1 30 5 0 5 -34 9
-77 9 -42 0 -73 -3 -69 -7z"/>
<path d="M960 310 c0 -55 4 -100 9 -100 5 0 9 12 9 28 -2 75 2 89 26 100 40
18 58 -4 59 -71 0 -31 4 -57 9 -57 10 0 10 111 0 126 -12 18 -50 26 -72 14
-17 -9 -20 -8 -21 12 -1 13 -1 29 0 36 1 6 -3 12 -9 12 -6 0 -10 -37 -10 -100z"/>
<path d="M1199 394 c0 -10 -2 -55 -2 -100 -2 -80 -2 -81 23 -81 14 0 30 -2 35
-3 58 -14 94 40 71 108 -12 35 -43 45 -96 31 -10 -3 -14 4 -15 23 -1 32 -15
50 -16 22z m98 -62 c21 -14 26 -60 9 -87 -18 -28 -43 -32 -71 -11 -21 15 -25
67 -5 90 13 17 47 21 67 8z"/>
<path d="M1801 398 c4 -32 -2 -59 -11 -53 -29 18 -61 14 -86 -10 -21 -21 -24
-31 -19 -63 7 -48 26 -66 67 -63 18 1 41 2 51 2 15 0 17 12 17 100 0 62 -4 99
-10 99 -6 0 -10 -6 -9 -12z m-7 -89 c13 -39 0 -78 -30 -85 -49 -12 -81 46 -53
97 16 31 71 22 83 -12z"/>
<path d="M1935 401 c-3 -5 -1 -12 5 -16 5 -3 10 1 10 9 0 18 -6 21 -15 7z"/>
<path d="M510 342 c-30 -24 -36 -82 -13 -111 30 -35 103 -32 117 5 7 19 -8 18
-24 -1 -25 -30 -90 -8 -90 30 0 11 14 14 60 12 50 -2 60 0 60 14 0 50 -71 83
-110 51z m78 -14 c25 -25 13 -36 -38 -35 -55 0 -54 0 -40 28 12 22 59 26 78 7z"/>
<path d="M740 332 c-27 -34 -24 -88 8 -112 27 -21 70 -18 90 7 19 27 13 40 -7
16 -37 -44 -91 -19 -91 41 0 17 5 37 12 44 17 17 54 15 73 -4 9 -9 19 -13 22
-10 12 12 -26 40 -57 42 -22 1 -36 -5 -50 -24z"/>
<path d="M1467 340 c-20 -16 -25 -27 -23 -60 3 -46 19 -67 58 -74 42 -7 78 26
78 72 0 43 -7 55 -37 71 -31 16 -47 14 -76 -9z m82 -14 c17 -21 20 -63 5 -85
-31 -43 -94 -16 -94 39 0 53 58 83 89 46z"/>
<path d="M1939 354 c-1 -15 -1 -118 0 -131 1 -7 4 -13 9 -13 9 0 9 137 -1 146
-4 4 -7 3 -8 -2z"/>
<path d="M2115 353 c-12 -2 -26 -13 -33 -23 -14 -23 0 -27 18 -5 18 21 57 19
70 -5 9 -17 6 -20 -27 -26 -54 -10 -73 -22 -73 -47 0 -26 27 -46 55 -40 11 3
35 5 53 5 23 0 30 3 24 11 -6 7 -10 34 -11 61 0 27 -4 53 -8 57 -12 10 -45 17
-68 12z m57 -98 c-7 -35 -58 -49 -81 -21 -17 21 10 43 51 42 27 -1 32 -4 30
-21z"/>
</g>
</svg>
